<svg width="54" height="54" viewBox="0 0 54 54" fill="none" xmlns="http://www.w3.org/2000/svg">
<mask id="path-1-outside-1" maskUnits="userSpaceOnUse" x="0" y="0" width="54" height="54" fill="black">
<rect fill="white" width="54" height="54"/>
<path fill-rule="evenodd" clip-rule="evenodd" d="M35.7264 2H18.2736V18.2736H2V35.7264H18.2736V52H35.7264V35.7264H52V18.2736H35.7264V2Z"/>
</mask>
<path fill-rule="evenodd" clip-rule="evenodd" d="M35.7264 2H18.2736V18.2736H2V35.7264H18.2736V52H35.7264V35.7264H52V18.2736H35.7264V2Z" fill="url(#paint0_linear)"/>
<path d="M18.2736 2V0C17.169 0 16.2736 0.895431 16.2736 2L18.2736 2ZM35.7264 2H37.7264C37.7264 0.895431 36.831 0 35.7264 0V2ZM18.2736 18.2736V20.2736C19.3782 20.2736 20.2736 19.3782 20.2736 18.2736H18.2736ZM2 18.2736V16.2736C0.895431 16.2736 0 17.169 0 18.2736H2ZM2 35.7264H0C0 36.831 0.895431 37.7264 2 37.7264L2 35.7264ZM18.2736 35.7264H20.2736C20.2736 34.6218 19.3782 33.7264 18.2736 33.7264V35.7264ZM18.2736 52H16.2736C16.2736 53.1046 17.169 54 18.2736 54V52ZM35.7264 52V54C36.831 54 37.7264 53.1046 37.7264 52H35.7264ZM35.7264 35.7264V33.7264C34.6218 33.7264 33.7264 34.6218 33.7264 35.7264H35.7264ZM52 35.7264V37.7264C53.1046 37.7264 54 36.831 54 35.7264H52ZM52 18.2736H54C54 17.169 53.1046 16.2736 52 16.2736V18.2736ZM35.7264 18.2736H33.7264C33.7264 19.3782 34.6218 20.2736 35.7264 20.2736V18.2736ZM18.2736 4H35.7264V0H18.2736V4ZM20.2736 18.2736V2H16.2736V18.2736H20.2736ZM2 20.2736H18.2736V16.2736H2V20.2736ZM4 35.7264V18.2736H0V35.7264H4ZM18.2736 33.7264H2V37.7264H18.2736V33.7264ZM20.2736 52V35.7264H16.2736V52H20.2736ZM35.7264 50H18.2736V54H35.7264V50ZM33.7264 35.7264V52H37.7264V35.7264H33.7264ZM52 33.7264H35.7264V37.7264H52V33.7264ZM50 18.2736V35.7264H54V18.2736H50ZM35.7264 20.2736H52V16.2736H35.7264V20.2736ZM33.7264 2V18.2736H37.7264V2H33.7264Z" fill="url(#paint1_linear)" mask="url(#path-1-outside-1)"/>
<path d="M27.2359 5.77359L29.2784 7.89623H25.1934L27.2359 5.77359Z" fill="#9F9F9F"/>
<path d="M27.2359 49.6415L25.1934 47.5189L29.2784 47.5189L27.2359 49.6415Z" fill="#9F9F9F"/>
<path d="M49.1698 27.7076L47.0472 29.7501L47.0472 25.665L49.1698 27.7076Z" fill="#9F9F9F"/>
<path d="M5.30188 27.7075L7.42452 25.665L7.42452 29.7501L5.30188 27.7075Z" fill="#9F9F9F"/>
<circle cx="27.2358" cy="27" r="1.41509" fill="#9F9F9F"/>
<defs>
<linearGradient id="paint0_linear" x1="17.3302" y1="2" x2="48.2264" y2="52" gradientUnits="userSpaceOnUse">
<stop stop-color="#dd0000"/>
<stop offset="1" stop-color="#990000"/>
</linearGradient>
<linearGradient id="paint1_linear" x1="17.3302" y1="2" x2="48.2264" y2="52" gradientUnits="userSpaceOnUse">
<stop stop-color="#cccccc"/>
<stop offset="1" stop-color="#888888"/>
</linearGradient>
</defs>
</svg>
